<svg width="72" height="72" viewBox="0 0 72 72" fill="none" xmlns="http://www.w3.org/2000/svg">
<rect width="72" height="72" fill="#010440"/>
<path d="M18 66C16.35 66 14.9375 65.4125 13.7625 64.2375C12.5875 63.0625 12 61.65 12 60V24C12 22.35 12.5875 20.9375 13.7625 19.7625C14.9375 18.5875 16.35 18 18 18H24C24 14.7 25.175 11.875 27.525 9.525C29.875 7.175 32.7 6 36 6C39.3 6 42.125 7.175 44.475 9.525C46.825 11.875 48 14.7 48 18H54C55.65 18 57.0625 18.5875 58.2375 19.7625C59.4125 20.9375 60 22.35 60 24V60C60 61.65 59.4125 63.0625 58.2375 64.2375C57.0625 65.4125 55.65 66 54 66H18ZM18 60H54V24H48V30C48 30.85 47.7125 31.5625 47.1375 32.1375C46.5625 32.7125 45.85 33 45 33C44.15 33 43.4375 32.7125 42.8625 32.1375C42.2875 31.5625 42 30.85 42 30V24H30V30C30 30.85 29.7125 31.5625 29.1375 32.1375C28.5625 32.7125 27.85 33 27 33C26.15 33 25.4375 32.7125 24.8625 32.1375C24.2875 31.5625 24 30.85 24 30V24H18V60ZM30 18H42C42 16.35 41.4125 14.9375 40.2375 13.7625C39.0625 12.5875 37.65 12 36 12C34.35 12 32.9375 12.5875 31.7625 13.7625C30.5875 14.9375 30 16.35 30 18Z" fill="#F7F7FA"/>
</svg>
