<svg width="26" height="26" viewBox="0 0 26 26" fill="none" xmlns="http://www.w3.org/2000/svg">
<path d="M12.4313 15.6812L8.50417 11.7541C8.45001 11.6999 8.40938 11.6412 8.3823 11.578C8.35522 11.5148 8.34167 11.4471 8.34167 11.3749C8.34167 11.2305 8.39133 11.1041 8.49063 10.9958C8.58994 10.8874 8.72084 10.8333 8.88334 10.8333H17.1167C17.2792 10.8333 17.4101 10.8874 17.5094 10.9958C17.6087 11.1041 17.6583 11.2305 17.6583 11.3749C17.6583 11.411 17.6042 11.5374 17.4958 11.7541L13.5688 15.6812C13.4785 15.7714 13.3882 15.8346 13.2979 15.8708C13.2076 15.9069 13.1083 15.9249 13 15.9249C12.8917 15.9249 12.7924 15.9069 12.7021 15.8708C12.6118 15.8346 12.5215 15.7714 12.4313 15.6812Z" fill="#F7F7FA"/>
</svg>
