<svg width="46" height="46" viewBox="0 0 42 42" fill="none" xmlns="http://www.w3.org/2000/svg">
<path d="M12.25 38.5C11.2875 38.5 10.4635 38.1573 9.77812 37.4719C9.09271 36.7865 8.75 35.9625 8.75 35C8.75 34.0375 9.09271 33.2135 9.77812 32.5281C10.4635 31.8427 11.2875 31.5 12.25 31.5C13.2125 31.5 14.0365 31.8427 14.7219 32.5281C15.4073 33.2135 15.75 34.0375 15.75 35C15.75 35.9625 15.4073 36.7865 14.7219 37.4719C14.0365 38.1573 13.2125 38.5 12.25 38.5ZM29.75 38.5C28.7875 38.5 27.9635 38.1573 27.2781 37.4719C26.5927 36.7865 26.25 35.9625 26.25 35C26.25 34.0375 26.5927 33.2135 27.2781 32.5281C27.9635 31.8427 28.7875 31.5 29.75 31.5C30.7125 31.5 31.5365 31.8427 32.2219 32.5281C32.9073 33.2135 33.25 34.0375 33.25 35C33.25 35.9625 32.9073 36.7865 32.2219 37.4719C31.5365 38.1573 30.7125 38.5 29.75 38.5ZM9.1 7H34.9125C35.5833 7 36.0938 7.29896 36.4437 7.89687C36.7938 8.49479 36.8083 9.1 36.4875 9.7125L30.275 20.9125C29.9542 21.4958 29.524 21.9479 28.9844 22.2687C28.4448 22.5896 27.8542 22.75 27.2125 22.75H14.175L12.25 26.25H31.5C31.9958 26.25 32.4115 26.4177 32.7469 26.7531C33.0823 27.0885 33.25 27.5042 33.25 28C33.25 28.4958 33.0823 28.9115 32.7469 29.2469C32.4115 29.5823 31.9958 29.75 31.5 29.75H12.25C10.9375 29.75 9.94583 29.174 9.275 28.0219C8.60417 26.8698 8.575 25.725 9.1875 24.5875L11.55 20.3L5.25 7H3.5C3.00417 7 2.58854 6.83229 2.25313 6.49688C1.91771 6.16146 1.75 5.74583 1.75 5.25C1.75 4.75417 1.91771 4.33854 2.25313 4.00313C2.58854 3.66771 3.00417 3.5 3.5 3.5H6.34375C6.66458 3.5 6.97083 3.5875 7.2625 3.7625C7.55417 3.9375 7.77292 4.18542 7.91875 4.50625L9.1 7Z" fill="#F7F7FA"/>
</svg>
