<svg width="160" height="160" viewBox="0 0 160 160" fill="none" xmlns="http://www.w3.org/2000/svg">
<path d="M70.6666 92L56.3332 77.6666C55.111 76.4444 53.5555 75.8333 51.6666 75.8333C49.7777 75.8333 48.2221 76.4444 46.9999 77.6666C45.7777 78.8889 45.1666 80.4444 45.1666 82.3333C45.1666 84.2222 45.7777 85.7778 46.9999 87L65.9999 106C67.3332 107.333 68.8888 108 70.6666 108C72.4444 108 73.9999 107.333 75.3332 106L113 68.3333C114.222 67.1111 114.833 65.5555 114.833 63.6666C114.833 61.7778 114.222 60.2222 113 59C111.778 57.7778 110.222 57.1666 108.333 57.1666C106.444 57.1666 104.889 57.7778 103.667 59L70.6666 92ZM79.9999 146.667C70.7777 146.667 62.111 144.917 53.9999 141.417C45.8888 137.917 38.8333 133.167 32.8333 127.167C26.8333 121.167 22.0833 114.111 18.5833 106C15.0833 97.8889 13.3333 89.2222 13.3333 80C13.3333 70.7778 15.0833 62.1111 18.5833 54C22.0833 45.8889 26.8333 38.8333 32.8333 32.8333C38.8333 26.8333 45.8888 22.0833 53.9999 18.5833C62.111 15.0833 70.7777 13.3333 79.9999 13.3333C89.2221 13.3333 97.8888 15.0833 106 18.5833C114.111 22.0833 121.167 26.8333 127.167 32.8333C133.167 38.8333 137.917 45.8889 141.417 54C144.917 62.1111 146.667 70.7778 146.667 80C146.667 89.2222 144.917 97.8889 141.417 106C137.917 114.111 133.167 121.167 127.167 127.167C121.167 133.167 114.111 137.917 106 141.417C97.8888 144.917 89.2221 146.667 79.9999 146.667ZM79.9999 133.333C94.8888 133.333 107.5 128.167 117.833 117.833C128.167 107.5 133.333 94.8889 133.333 80C133.333 65.1111 128.167 52.5 117.833 42.1666C107.5 31.8333 94.8888 26.6666 79.9999 26.6666C65.111 26.6666 52.4999 31.8333 42.1666 42.1666C31.8333 52.5 26.6666 65.1111 26.6666 80C26.6666 94.8889 31.8333 107.5 42.1666 117.833C52.4999 128.167 65.111 133.333 79.9999 133.333Z" fill="url(#paint0_linear_70_9)"/>
<defs>
<linearGradient id="paint0_linear_70_9" x1="79.9999" y1="13.3333" x2="79.9999" y2="146.667" gradientUnits="userSpaceOnUse">
<stop stop-color="#030AA6"/>
<stop offset="0.455" stop-color="#0A0E72"/>
<stop offset="0.895" stop-color="#101240"/>
</linearGradient>
</defs>
</svg>
