<svg width="89" height="57" viewBox="0 0 89 57" fill="none" xmlns="http://www.w3.org/2000/svg">
<circle cx="4.04546" cy="4.04546" r="4.04546" fill="#D9D9D9"/>
<circle cx="4.04546" cy="20.2273" r="4.04546" fill="#D9D9D9"/>
<circle cx="4.04546" cy="36.4092" r="4.04546" fill="#D9D9D9"/>
<circle cx="4.04546" cy="52.591" r="4.04546" fill="#D9D9D9"/>
<circle cx="68.7728" cy="36.4092" r="4.04546" fill="#D9D9D9"/>
<circle cx="68.7728" cy="52.591" r="4.04546" fill="#D9D9D9"/>
<circle cx="20.2273" cy="4.04546" r="4.04546" fill="#D9D9D9"/>
<circle cx="20.2273" cy="20.2273" r="4.04546" fill="#D9D9D9"/>
<circle cx="20.2273" cy="36.4092" r="4.04546" fill="#D9D9D9"/>
<circle cx="20.2273" cy="52.591" r="4.04546" fill="#D9D9D9"/>
<circle cx="84.9546" cy="36.4092" r="4.04546" fill="#D9D9D9"/>
<circle cx="84.9546" cy="52.591" r="4.04546" fill="#D9D9D9"/>
<circle cx="36.4092" cy="36.4092" r="4.04546" fill="#D9D9D9"/>
<circle cx="36.4092" cy="52.591" r="4.04546" fill="#D9D9D9"/>
<circle cx="52.5911" cy="36.4092" r="4.04546" fill="#D9D9D9"/>
<circle cx="52.5911" cy="52.591" r="4.04546" fill="#D9D9D9"/>
<circle cx="36.4092" cy="4.04546" r="4.04546" fill="#D9D9D9"/>
<circle cx="36.4092" cy="20.2273" r="4.04546" fill="#D9D9D9"/>
<circle cx="52.5911" cy="4.04546" r="4.04546" fill="#D9D9D9"/>
<circle cx="68.7728" cy="4.04546" r="4.04546" fill="#D9D9D9"/>
<circle cx="84.9546" cy="4.04546" r="4.04546" fill="#D9D9D9"/>
<circle cx="52.5911" cy="20.2273" r="4.04546" fill="#D9D9D9"/>
<circle cx="68.7728" cy="20.2273" r="4.04546" fill="#D9D9D9"/>
<circle cx="84.9546" cy="20.2273" r="4.04546" fill="#D9D9D9"/>
</svg>
