<svg width="305" height="91" viewBox="0 0 305 91" fill="none" xmlns="http://www.w3.org/2000/svg">
<path d="M27.072 62.768C23.5307 62.768 20.2453 62.192 17.216 61.04C14.2293 59.888 11.6267 58.2667 9.408 56.176C7.232 54.0853 5.52533 51.632 4.288 48.816C3.09333 46 2.496 42.928 2.496 39.6C2.496 36.272 3.09333 33.2 4.288 30.384C5.52533 27.568 7.25333 25.1147 9.472 23.024C11.6907 20.9333 14.2933 19.312 17.28 18.16C20.2667 17.008 23.5093 16.432 27.008 16.432C30.5493 16.432 33.792 17.008 36.736 18.16C39.7227 19.312 42.304 20.9333 44.48 23.024C46.6987 25.1147 48.4267 27.568 49.664 30.384C50.9013 33.1573 51.52 36.2293 51.52 39.6C51.52 42.928 50.9013 46.0213 49.664 48.88C48.4267 51.696 46.6987 54.1493 44.48 56.24C42.304 58.288 39.7227 59.888 36.736 61.04C33.792 62.192 30.5707 62.768 27.072 62.768ZM27.008 53.936C29.0133 53.936 30.848 53.5947 32.512 52.912C34.2187 52.2293 35.712 51.248 36.992 49.968C38.272 48.688 39.2533 47.1733 39.936 45.424C40.6613 43.6747 41.024 41.7333 41.024 39.6C41.024 37.4667 40.6613 35.5253 39.936 33.776C39.2533 32.0267 38.272 30.512 36.992 29.232C35.7547 27.952 34.2827 26.9707 32.576 26.288C30.8693 25.6053 29.0133 25.264 27.008 25.264C25.0027 25.264 23.1467 25.6053 21.44 26.288C19.776 26.9707 18.304 27.952 17.024 29.232C15.744 30.512 14.7413 32.0267 14.016 33.776C13.3333 35.5253 12.992 37.4667 12.992 39.6C12.992 41.6907 13.3333 43.632 14.016 45.424C14.7413 47.1733 15.7227 48.688 16.96 49.968C18.24 51.248 19.7333 52.2293 21.44 52.912C23.1467 53.5947 25.0027 53.936 27.008 53.936ZM79.536 27.056C82.2667 27.056 84.6987 27.6107 86.832 28.72C89.008 29.7867 90.7147 31.4507 91.952 33.712C93.1893 35.9307 93.808 38.7893 93.808 42.288V62H83.824V43.824C83.824 41.0507 83.2053 39.0027 81.968 37.68C80.7733 36.3573 79.0667 35.696 76.848 35.696C75.2693 35.696 73.84 36.0373 72.56 36.72C71.3227 37.36 70.3413 38.3627 69.616 39.728C68.9333 41.0933 68.592 42.8427 68.592 44.976V62H58.608V27.568H68.144V37.104L66.352 34.224C67.5893 31.92 69.36 30.1493 71.664 28.912C73.968 27.6747 76.592 27.056 79.536 27.056ZM120.196 62.512C116.271 62.512 112.815 61.744 109.828 60.208C106.884 58.672 104.601 56.5813 102.98 53.936C101.359 51.248 100.548 48.1973 100.548 44.784C100.548 41.328 101.337 38.2773 102.916 35.632C104.537 32.944 106.735 30.8533 109.508 29.36C112.281 27.824 115.417 27.056 118.916 27.056C122.287 27.056 125.316 27.7813 128.004 29.232C130.735 30.64 132.889 32.688 134.468 35.376C136.047 38.0213 136.836 41.2 136.836 44.912C136.836 45.296 136.815 45.744 136.772 46.256C136.729 46.7253 136.687 47.1733 136.644 47.6H108.676V41.776H131.396L127.556 43.504C127.556 41.712 127.193 40.1547 126.468 38.832C125.743 37.5093 124.74 36.4853 123.46 35.76C122.18 34.992 120.687 34.608 118.98 34.608C117.273 34.608 115.759 34.992 114.436 35.76C113.156 36.4853 112.153 37.5307 111.428 38.896C110.703 40.2187 110.34 41.7973 110.34 43.632V45.168C110.34 47.0453 110.745 48.7093 111.556 50.16C112.409 51.568 113.583 52.656 115.076 53.424C116.612 54.1493 118.404 54.512 120.452 54.512C122.287 54.512 123.887 54.2347 125.252 53.68C126.66 53.1253 127.94 52.2933 129.092 51.184L134.404 56.944C132.825 58.736 130.841 60.1227 128.452 61.104C126.063 62.0427 123.311 62.512 120.196 62.512ZM165.627 62.768C162.171 62.768 158.95 62.2133 155.963 61.104C153.019 59.952 150.459 58.3307 148.283 56.24C146.107 54.1493 144.4 51.696 143.163 48.88C141.968 46.064 141.371 42.9707 141.371 39.6C141.371 36.2293 141.968 33.136 143.163 30.32C144.4 27.504 146.107 25.0507 148.283 22.96C150.502 20.8693 153.083 19.2693 156.027 18.16C158.971 17.008 162.192 16.432 165.691 16.432C169.574 16.432 173.072 17.1147 176.187 18.48C179.344 19.8027 181.99 21.7653 184.123 24.368L177.467 30.512C175.931 28.7627 174.224 27.4613 172.347 26.608C170.47 25.712 168.422 25.264 166.203 25.264C164.112 25.264 162.192 25.6053 160.443 26.288C158.694 26.9707 157.179 27.952 155.899 29.232C154.619 30.512 153.616 32.0267 152.891 33.776C152.208 35.5253 151.867 37.4667 151.867 39.6C151.867 41.7333 152.208 43.6747 152.891 45.424C153.616 47.1733 154.619 48.688 155.899 49.968C157.179 51.248 158.694 52.2293 160.443 52.912C162.192 53.5947 164.112 53.936 166.203 53.936C168.422 53.936 170.47 53.5093 172.347 52.656C174.224 51.76 175.931 50.416 177.467 48.624L184.123 54.768C181.99 57.3707 179.344 59.3547 176.187 60.72C173.072 62.0853 169.552 62.768 165.627 62.768ZM190.421 62V14.512H200.405V62H190.421ZM209.671 62V27.568H219.655V62H209.671ZM214.663 22.768C212.828 22.768 211.335 22.2347 210.183 21.168C209.031 20.1013 208.455 18.7787 208.455 17.2C208.455 15.6213 209.031 14.2987 210.183 13.232C211.335 12.1653 212.828 11.632 214.663 11.632C216.497 11.632 217.991 12.144 219.143 13.168C220.295 14.1493 220.871 15.4293 220.871 17.008C220.871 18.672 220.295 20.0587 219.143 21.168C218.033 22.2347 216.54 22.768 214.663 22.768ZM245.561 62.512C241.849 62.512 238.542 61.7653 235.641 60.272C232.739 58.736 230.457 56.624 228.793 53.936C227.171 51.248 226.361 48.1973 226.361 44.784C226.361 41.328 227.171 38.2773 228.793 35.632C230.457 32.944 232.739 30.8533 235.641 29.36C238.542 27.824 241.849 27.056 245.561 27.056C249.187 27.056 252.345 27.824 255.033 29.36C257.721 30.8533 259.705 33.008 260.985 35.824L253.241 39.984C252.345 38.3627 251.214 37.168 249.849 36.4C248.526 35.632 247.075 35.248 245.497 35.248C243.79 35.248 242.254 35.632 240.889 36.4C239.523 37.168 238.435 38.256 237.625 39.664C236.857 41.072 236.473 42.7787 236.473 44.784C236.473 46.7893 236.857 48.496 237.625 49.904C238.435 51.312 239.523 52.4 240.889 53.168C242.254 53.936 243.79 54.32 245.497 54.32C247.075 54.32 248.526 53.9573 249.849 53.232C251.214 52.464 252.345 51.248 253.241 49.584L260.985 53.808C259.705 56.5813 257.721 58.736 255.033 60.272C252.345 61.7653 249.187 62.512 245.561 62.512ZM274.802 54.96L275.058 42.8L291.122 27.568H303.026L287.602 43.248L282.418 47.472L274.802 54.96ZM266.546 62V14.512H276.53V62H266.546ZM292.21 62L280.562 47.536L286.834 39.792L304.306 62H292.21Z" fill="#0D0D0D"/>
<path d="M69.512 85.12C68.296 85.12 67.2 84.848 66.224 84.304C65.264 83.744 64.504 82.984 63.944 82.024C63.384 81.048 63.104 79.936 63.104 78.688C63.104 77.424 63.384 76.312 63.944 75.352C64.504 74.392 65.264 73.64 66.224 73.096C67.184 72.552 68.28 72.28 69.512 72.28C70.76 72.28 71.864 72.552 72.824 73.096C73.8 73.64 74.56 74.392 75.104 75.352C75.664 76.312 75.944 77.424 75.944 78.688C75.944 79.936 75.664 81.048 75.104 82.024C74.56 82.984 73.8 83.744 72.824 84.304C71.848 84.848 70.744 85.12 69.512 85.12ZM69.512 83.608C70.424 83.608 71.232 83.408 71.936 83.008C72.64 82.592 73.192 82.016 73.592 81.28C74.008 80.528 74.216 79.664 74.216 78.688C74.216 77.696 74.008 76.832 73.592 76.096C73.192 75.36 72.64 74.792 71.936 74.392C71.232 73.976 70.432 73.768 69.536 73.768C68.64 73.768 67.84 73.976 67.136 74.392C66.432 74.792 65.872 75.36 65.456 76.096C65.04 76.832 64.832 77.696 64.832 78.688C64.832 79.664 65.04 80.528 65.456 81.28C65.872 82.016 66.432 82.592 67.136 83.008C67.84 83.408 68.632 83.608 69.512 83.608ZM89.4549 72.28C90.4789 72.28 91.3749 72.48 92.1429 72.88C92.9269 73.264 93.5349 73.856 93.9669 74.656C94.4149 75.456 94.6389 76.464 94.6389 77.68V85H92.9349V77.848C92.9349 76.52 92.5989 75.52 91.9269 74.848C91.2709 74.16 90.3429 73.816 89.1429 73.816C88.2469 73.816 87.4629 74 86.7909 74.368C86.1349 74.72 85.6229 75.24 85.2549 75.928C84.9029 76.6 84.7269 77.416 84.7269 78.376V85H83.0229V72.4H84.6549V75.856L84.3909 75.208C84.7909 74.296 85.4309 73.584 86.3109 73.072C87.1909 72.544 88.2389 72.28 89.4549 72.28ZM102.842 85V67.192H104.546V85H102.842ZM112.887 85V72.4H114.591V85H112.887ZM113.751 69.616C113.399 69.616 113.103 69.496 112.863 69.256C112.623 69.016 112.503 68.728 112.503 68.392C112.503 68.056 112.623 67.776 112.863 67.552C113.103 67.312 113.399 67.192 113.751 67.192C114.103 67.192 114.399 67.304 114.639 67.528C114.879 67.752 114.999 68.032 114.999 68.368C114.999 68.72 114.879 69.016 114.639 69.256C114.415 69.496 114.119 69.616 113.751 69.616ZM129.364 72.28C130.388 72.28 131.284 72.48 132.052 72.88C132.836 73.264 133.444 73.856 133.876 74.656C134.324 75.456 134.548 76.464 134.548 77.68V85H132.844V77.848C132.844 76.52 132.508 75.52 131.836 74.848C131.18 74.16 130.252 73.816 129.052 73.816C128.156 73.816 127.372 74 126.7 74.368C126.044 74.72 125.532 75.24 125.164 75.928C124.812 76.6 124.636 77.416 124.636 78.376V85H122.932V72.4H124.564V75.856L124.3 75.208C124.7 74.296 125.34 73.584 126.22 73.072C127.1 72.544 128.148 72.28 129.364 72.28ZM148.103 85.12C146.791 85.12 145.639 84.848 144.647 84.304C143.655 83.744 142.879 82.984 142.319 82.024C141.759 81.048 141.479 79.936 141.479 78.688C141.479 77.44 141.743 76.336 142.271 75.376C142.815 74.416 143.551 73.664 144.479 73.12C145.423 72.56 146.479 72.28 147.647 72.28C148.831 72.28 149.879 72.552 150.791 73.096C151.719 73.624 152.447 74.376 152.975 75.352C153.503 76.312 153.767 77.424 153.767 78.688C153.767 78.768 153.759 78.856 153.743 78.952C153.743 79.032 153.743 79.12 153.743 79.216H142.775V77.944H152.831L152.159 78.448C152.159 77.536 151.959 76.728 151.559 76.024C151.175 75.304 150.647 74.744 149.975 74.344C149.303 73.944 148.527 73.744 147.647 73.744C146.783 73.744 146.007 73.944 145.319 74.344C144.631 74.744 144.095 75.304 143.711 76.024C143.327 76.744 143.135 77.568 143.135 78.496V78.76C143.135 79.72 143.343 80.568 143.759 81.304C144.191 82.024 144.783 82.592 145.535 83.008C146.303 83.408 147.175 83.608 148.151 83.608C148.919 83.608 149.631 83.472 150.287 83.2C150.959 82.928 151.535 82.512 152.015 81.952L152.975 83.056C152.415 83.728 151.711 84.24 150.863 84.592C150.031 84.944 149.111 85.12 148.103 85.12ZM174.101 85.12C173.061 85.12 172.077 84.976 171.149 84.688C170.221 84.384 169.493 84.008 168.965 83.56L169.733 82.216C170.245 82.6 170.901 82.936 171.701 83.224C172.501 83.496 173.341 83.632 174.221 83.632C175.421 83.632 176.285 83.448 176.813 83.08C177.341 82.696 177.605 82.192 177.605 81.568C177.605 81.104 177.453 80.744 177.149 80.488C176.861 80.216 176.477 80.016 175.997 79.888C175.517 79.744 174.981 79.624 174.389 79.528C173.797 79.432 173.205 79.32 172.613 79.192C172.037 79.064 171.509 78.88 171.029 78.64C170.549 78.384 170.157 78.04 169.853 77.608C169.565 77.176 169.421 76.6 169.421 75.88C169.421 75.192 169.613 74.576 169.997 74.032C170.381 73.488 170.941 73.064 171.677 72.76C172.429 72.44 173.341 72.28 174.413 72.28C175.229 72.28 176.045 72.392 176.861 72.616C177.677 72.824 178.349 73.104 178.877 73.456L178.133 74.824C177.573 74.44 176.973 74.168 176.333 74.008C175.693 73.832 175.053 73.744 174.413 73.744C173.277 73.744 172.437 73.944 171.893 74.344C171.365 74.728 171.101 75.224 171.101 75.832C171.101 76.312 171.245 76.688 171.533 76.96C171.837 77.232 172.229 77.448 172.709 77.608C173.205 77.752 173.741 77.872 174.317 77.968C174.909 78.064 175.493 78.184 176.069 78.328C176.661 78.456 177.197 78.64 177.677 78.88C178.173 79.104 178.565 79.432 178.853 79.864C179.157 80.28 179.309 80.832 179.309 81.52C179.309 82.256 179.101 82.896 178.685 83.44C178.285 83.968 177.693 84.384 176.909 84.688C176.141 84.976 175.205 85.12 174.101 85.12ZM190.019 85.12C188.835 85.12 187.923 84.8 187.283 84.16C186.643 83.52 186.323 82.616 186.323 81.448V69.616H188.027V81.352C188.027 82.088 188.211 82.656 188.579 83.056C188.963 83.456 189.507 83.656 190.211 83.656C190.963 83.656 191.587 83.44 192.083 83.008L192.683 84.232C192.347 84.536 191.939 84.76 191.459 84.904C190.995 85.048 190.515 85.12 190.019 85.12ZM184.067 73.816V72.4H191.867V73.816H184.067ZM204.076 85.12C202.86 85.12 201.764 84.848 200.788 84.304C199.828 83.744 199.068 82.984 198.508 82.024C197.948 81.048 197.668 79.936 197.668 78.688C197.668 77.424 197.948 76.312 198.508 75.352C199.068 74.392 199.828 73.64 200.788 73.096C201.748 72.552 202.844 72.28 204.076 72.28C205.324 72.28 206.428 72.552 207.388 73.096C208.364 73.64 209.124 74.392 209.668 75.352C210.228 76.312 210.508 77.424 210.508 78.688C210.508 79.936 210.228 81.048 209.668 82.024C209.124 82.984 208.364 83.744 207.388 84.304C206.412 84.848 205.308 85.12 204.076 85.12ZM204.076 83.608C204.988 83.608 205.796 83.408 206.5 83.008C207.204 82.592 207.756 82.016 208.156 81.28C208.572 80.528 208.78 79.664 208.78 78.688C208.78 77.696 208.572 76.832 208.156 76.096C207.756 75.36 207.204 74.792 206.5 74.392C205.796 73.976 204.996 73.768 204.1 73.768C203.204 73.768 202.404 73.976 201.7 74.392C200.996 74.792 200.436 75.36 200.02 76.096C199.604 76.832 199.396 77.696 199.396 78.688C199.396 79.664 199.604 80.528 200.02 81.28C200.436 82.016 200.996 82.592 201.7 83.008C202.404 83.408 203.196 83.608 204.076 83.608ZM217.587 85V72.4H219.219V75.832L219.051 75.232C219.403 74.272 219.995 73.544 220.827 73.048C221.659 72.536 222.691 72.28 223.923 72.28V73.936C223.859 73.936 223.795 73.936 223.731 73.936C223.667 73.92 223.603 73.912 223.539 73.912C222.211 73.912 221.171 74.32 220.419 75.136C219.667 75.936 219.291 77.08 219.291 78.568V85H217.587ZM235.867 85.12C234.555 85.12 233.403 84.848 232.411 84.304C231.419 83.744 230.643 82.984 230.083 82.024C229.523 81.048 229.243 79.936 229.243 78.688C229.243 77.44 229.507 76.336 230.035 75.376C230.579 74.416 231.315 73.664 232.243 73.12C233.187 72.56 234.243 72.28 235.411 72.28C236.595 72.28 237.643 72.552 238.555 73.096C239.483 73.624 240.211 74.376 240.739 75.352C241.267 76.312 241.531 77.424 241.531 78.688C241.531 78.768 241.523 78.856 241.507 78.952C241.507 79.032 241.507 79.12 241.507 79.216H230.539V77.944H240.595L239.923 78.448C239.923 77.536 239.723 76.728 239.323 76.024C238.939 75.304 238.411 74.744 237.739 74.344C237.067 73.944 236.291 73.744 235.411 73.744C234.547 73.744 233.771 73.944 233.083 74.344C232.395 74.744 231.859 75.304 231.475 76.024C231.091 76.744 230.899 77.568 230.899 78.496V78.76C230.899 79.72 231.107 80.568 231.523 81.304C231.955 82.024 232.547 82.592 233.299 83.008C234.067 83.408 234.939 83.608 235.915 83.608C236.683 83.608 237.395 83.472 238.051 83.2C238.723 82.928 239.299 82.512 239.779 81.952L240.739 83.056C240.179 83.728 239.475 84.24 238.627 84.592C237.795 84.944 236.875 85.12 235.867 85.12Z" fill="#0D0D0D"/>
</svg>
