<svg width="120" height="120" viewBox="0 0 120 120" fill="none" xmlns="http://www.w3.org/2000/svg">
<path d="M26.25 110C23.1562 110 20.5078 109.021 18.3047 107.062C16.1016 105.104 15 102.75 15 100V50C15 47.25 16.1016 44.8958 18.3047 42.9375C20.5078 40.9792 23.1562 40 26.25 40H31.875V30C31.875 23.0833 34.6172 17.1875 40.1016 12.3125C45.5859 7.4375 52.2188 5 60 5C67.7812 5 74.4141 7.4375 79.8984 12.3125C85.3828 17.1875 88.125 23.0833 88.125 30V40H93.75C96.8438 40 99.4922 40.9792 101.695 42.9375C103.898 44.8958 105 47.25 105 50V100C105 102.75 103.898 105.104 101.695 107.062C99.4922 109.021 96.8438 110 93.75 110H26.25ZM60 85C63.0938 85 65.7422 84.0208 67.9453 82.0625C70.1484 80.1042 71.25 77.75 71.25 75C71.25 72.25 70.1484 69.8958 67.9453 67.9375C65.7422 65.9792 63.0938 65 60 65C56.9062 65 54.2578 65.9792 52.0547 67.9375C49.8516 69.8958 48.75 72.25 48.75 75C48.75 77.75 49.8516 80.1042 52.0547 82.0625C54.2578 84.0208 56.9062 85 60 85ZM43.125 40H76.875V30C76.875 25.8333 75.2344 22.2917 71.9531 19.375C68.6719 16.4583 64.6875 15 60 15C55.3125 15 51.3281 16.4583 48.0469 19.375C44.7656 22.2917 43.125 25.8333 43.125 30V40Z" fill="url(#paint0_linear_1_166)"/>
<defs>
<linearGradient id="paint0_linear_1_166" x1="60" y1="5" x2="60" y2="110" gradientUnits="userSpaceOnUse">
<stop stop-color="#030AA6"/>
<stop offset="0.455" stop-color="#0A0E72"/>
<stop offset="0.895" stop-color="#101240"/>
</linearGradient>
</defs>
</svg>
