<svg width="24" height="24" viewBox="0 0 24 24" fill="none" xmlns="http://www.w3.org/2000/svg">
<path d="M5.25 22C4.63125 22 4.10156 21.8042 3.66094 21.4125C3.22031 21.0208 3 20.55 3 20V10C3 9.45 3.22031 8.97917 3.66094 8.5875C4.10156 8.19583 4.63125 8 5.25 8H6.375V6C6.375 4.61667 6.92344 3.4375 8.02031 2.4625C9.11719 1.4875 10.4437 1 12 1C13.5562 1 14.8828 1.4875 15.9797 2.4625C17.0766 3.4375 17.625 4.61667 17.625 6V8H18.75C19.3687 8 19.8984 8.19583 20.3391 8.5875C20.7797 8.97917 21 9.45 21 10V20C21 20.55 20.7797 21.0208 20.3391 21.4125C19.8984 21.8042 19.3687 22 18.75 22H5.25ZM12 17C12.6187 17 13.1484 16.8042 13.5891 16.4125C14.0297 16.0208 14.25 15.55 14.25 15C14.25 14.45 14.0297 13.9792 13.5891 13.5875C13.1484 13.1958 12.6187 13 12 13C11.3812 13 10.8516 13.1958 10.4109 13.5875C9.97031 13.9792 9.75 14.45 9.75 15C9.75 15.55 9.97031 16.0208 10.4109 16.4125C10.8516 16.8042 11.3812 17 12 17ZM8.625 8H15.375V6C15.375 5.16667 15.0469 4.45833 14.3906 3.875C13.7344 3.29167 12.9375 3 12 3C11.0625 3 10.2656 3.29167 9.60937 3.875C8.95312 4.45833 8.625 5.16667 8.625 6V8Z" fill="#090D59"/>
</svg>
