<svg width="42" height="42" viewBox="0 0 42 42" fill="none" xmlns="http://www.w3.org/2000/svg">
<path d="M31.5 19.25H28C27.5042 19.25 27.0885 19.0823 26.7531 18.7469C26.4177 18.4115 26.25 17.9958 26.25 17.5C26.25 17.0042 26.4177 16.5885 26.7531 16.2531C27.0885 15.9177 27.5042 15.75 28 15.75H31.5V12.25C31.5 11.7542 31.6677 11.3385 32.0031 11.0031C32.3385 10.6677 32.7542 10.5 33.25 10.5C33.7458 10.5 34.1615 10.6677 34.4969 11.0031C34.8323 11.3385 35 11.7542 35 12.25V15.75H38.5C38.9958 15.75 39.4115 15.9177 39.7469 16.2531C40.0823 16.5885 40.25 17.0042 40.25 17.5C40.25 17.9958 40.0823 18.4115 39.7469 18.7469C39.4115 19.0823 38.9958 19.25 38.5 19.25H35V22.75C35 23.2458 34.8323 23.6615 34.4969 23.9969C34.1615 24.3323 33.7458 24.5 33.25 24.5C32.7542 24.5 32.3385 24.3323 32.0031 23.9969C31.6677 23.6615 31.5 23.2458 31.5 22.75V19.25ZM15.75 21C13.825 21 12.1771 20.3146 10.8062 18.9437C9.43542 17.5729 8.75 15.925 8.75 14C8.75 12.075 9.43542 10.4271 10.8062 9.05625C12.1771 7.68542 13.825 7 15.75 7C17.675 7 19.3229 7.68542 20.6938 9.05625C22.0646 10.4271 22.75 12.075 22.75 14C22.75 15.925 22.0646 17.5729 20.6938 18.9437C19.3229 20.3146 17.675 21 15.75 21ZM1.75 31.5V30.1C1.75 29.1083 2.00521 28.1969 2.51562 27.3656C3.02604 26.5344 3.70417 25.9 4.55 25.4625C6.35833 24.5583 8.19583 23.8802 10.0625 23.4281C11.9292 22.976 13.825 22.75 15.75 22.75C17.675 22.75 19.5708 22.976 21.4375 23.4281C23.3042 23.8802 25.1417 24.5583 26.95 25.4625C27.7958 25.9 28.474 26.5344 28.9844 27.3656C29.4948 28.1969 29.75 29.1083 29.75 30.1V31.5C29.75 32.4625 29.4073 33.2865 28.7219 33.9719C28.0365 34.6573 27.2125 35 26.25 35H5.25C4.2875 35 3.46354 34.6573 2.77812 33.9719C2.09271 33.2865 1.75 32.4625 1.75 31.5Z" fill="#E8EAED"/>
</svg>
