<svg width="48" height="48" viewBox="0 0 48 48" fill="none" xmlns="http://www.w3.org/2000/svg">
<path d="M24 26C25.9333 26 27.5833 25.3167 28.95 23.95C30.3167 22.5833 31 20.9333 31 19C31 17.0667 30.3167 15.4167 28.95 14.05C27.5833 12.6833 25.9333 12 24 12C22.0667 12 20.4167 12.6833 19.05 14.05C17.6833 15.4167 17 17.0667 17 19C17 20.9333 17.6833 22.5833 19.05 23.95C20.4167 25.3167 22.0667 26 24 26ZM24 39.8C25.9667 39.1667 27.7083 38.175 29.225 36.825C30.7417 35.475 32.0667 33.95 33.2 32.25C31.7667 31.5167 30.275 30.9583 28.725 30.575C27.175 30.1917 25.6 30 24 30C22.4 30 20.825 30.1917 19.275 30.575C17.725 30.9583 16.2333 31.5167 14.8 32.25C15.9333 33.95 17.2583 35.475 18.775 36.825C20.2917 38.175 22.0333 39.1667 24 39.8ZM24 43.8C23.7667 43.8 23.55 43.7833 23.35 43.75C23.15 43.7167 22.95 43.6667 22.75 43.6C18.25 42.1 14.6667 39.325 12 35.275C9.33333 31.225 8 26.8667 8 22.2V12.75C8 11.9167 8.24167 11.1667 8.725 10.5C9.20833 9.83332 9.83333 9.34999 10.6 9.04999L22.6 4.54999C23.0667 4.38332 23.5333 4.29999 24 4.29999C24.4667 4.29999 24.9333 4.38332 25.4 4.54999L37.4 9.04999C38.1667 9.34999 38.7917 9.83332 39.275 10.5C39.7583 11.1667 40 11.9167 40 12.75V22.2C40 26.8667 38.6667 31.225 36 35.275C33.3333 39.325 29.75 42.1 25.25 43.6C25.05 43.6667 24.85 43.7167 24.65 43.75C24.45 43.7833 24.2333 43.8 24 43.8Z" fill="#00010D"/>
</svg>
