<svg width="48" height="48" viewBox="0 0 48 48" fill="none" xmlns="http://www.w3.org/2000/svg">
<path d="M10 42C8.9 42 7.95833 41.6083 7.175 40.825C6.39167 40.0417 6 39.1 6 38V10C6 8.9 6.39167 7.95833 7.175 7.175C7.95833 6.39167 8.9 6 10 6H38C39.1 6 40.0417 6.39167 40.825 7.175C41.6083 7.95833 42 8.9 42 10V38C42 39.1 41.6083 40.0417 40.825 40.825C40.0417 41.6083 39.1 42 38 42H10ZM16 34H26C26.5667 34 27.0417 33.8083 27.425 33.425C27.8083 33.0417 28 32.5667 28 32C28 31.4333 27.8083 30.9583 27.425 30.575C27.0417 30.1917 26.5667 30 26 30H16C15.4333 30 14.9583 30.1917 14.575 30.575C14.1917 30.9583 14 31.4333 14 32C14 32.5667 14.1917 33.0417 14.575 33.425C14.9583 33.8083 15.4333 34 16 34ZM16 26H32C32.5667 26 33.0417 25.8083 33.425 25.425C33.8083 25.0417 34 24.5667 34 24C34 23.4333 33.8083 22.9583 33.425 22.575C33.0417 22.1917 32.5667 22 32 22H16C15.4333 22 14.9583 22.1917 14.575 22.575C14.1917 22.9583 14 23.4333 14 24C14 24.5667 14.1917 25.0417 14.575 25.425C14.9583 25.8083 15.4333 26 16 26ZM16 18H32C32.5667 18 33.0417 17.8083 33.425 17.425C33.8083 17.0417 34 16.5667 34 16C34 15.4333 33.8083 14.9583 33.425 14.575C33.0417 14.1917 32.5667 14 32 14H16C15.4333 14 14.9583 14.1917 14.575 14.575C14.1917 14.9583 14 15.4333 14 16C14 16.5667 14.1917 17.0417 14.575 17.425C14.9583 17.8083 15.4333 18 16 18Z" fill="#00010D"/>
</svg>
