<svg width="20" height="19" viewBox="0 0 20 19" fill="none" xmlns="http://www.w3.org/2000/svg">
<path d="M5.8335 17.2765C5.37516 17.2765 4.9828 17.1241 4.65641 16.8193C4.33002 16.5145 4.16683 16.148 4.16683 15.72C4.16683 15.292 4.33002 14.9256 4.65641 14.6208C4.9828 14.316 5.37516 14.1636 5.8335 14.1636C6.29183 14.1636 6.68419 14.316 7.01058 14.6208C7.33697 14.9256 7.50016 15.292 7.50016 15.72C7.50016 16.148 7.33697 16.5145 7.01058 16.8193C6.68419 17.1241 6.29183 17.2765 5.8335 17.2765ZM14.1668 17.2765C13.7085 17.2765 13.3161 17.1241 12.9897 16.8193C12.6634 16.5145 12.5002 16.148 12.5002 15.72C12.5002 15.292 12.6634 14.9256 12.9897 14.6208C13.3161 14.316 13.7085 14.1636 14.1668 14.1636C14.6252 14.1636 15.0175 14.316 15.3439 14.6208C15.6703 14.9256 15.8335 15.292 15.8335 15.72C15.8335 16.148 15.6703 16.5145 15.3439 16.8193C15.0175 17.1241 14.6252 17.2765 14.1668 17.2765ZM4.3335 3.26837H16.6252C16.9446 3.26837 17.1877 3.40132 17.3543 3.66721C17.521 3.93311 17.5279 4.20224 17.3752 4.47462L14.4168 9.45528C14.2641 9.71469 14.0592 9.91573 13.8022 10.0584C13.5453 10.2011 13.2641 10.2724 12.9585 10.2724H6.75016L5.8335 11.8289H15.0002C15.2363 11.8289 15.4342 11.9035 15.5939 12.0526C15.7536 12.2018 15.8335 12.3866 15.8335 12.6071C15.8335 12.8276 15.7536 13.0124 15.5939 13.1616C15.4342 13.3108 15.2363 13.3853 15.0002 13.3853H5.8335C5.2085 13.3853 4.73627 13.1292 4.41683 12.6168C4.09739 12.1045 4.0835 11.5954 4.37516 11.0896L5.50016 9.1829L2.50016 3.26837H1.66683C1.43072 3.26837 1.2328 3.19379 1.07308 3.04463C0.913357 2.89547 0.833496 2.71064 0.833496 2.49014C0.833496 2.26964 0.913357 2.08481 1.07308 1.93565C1.2328 1.78649 1.43072 1.71191 1.66683 1.71191H3.021C3.17377 1.71191 3.31961 1.75083 3.4585 1.82865C3.59739 1.90647 3.70155 2.01672 3.771 2.1594L4.3335 3.26837Z" fill="#4C4C4C"/>
</svg>
