<svg width="20" height="19" viewBox="0 0 20 19" fill="none" xmlns="http://www.w3.org/2000/svg">
<path d="M10.0002 16.7512C9.80572 16.7512 9.61127 16.7187 9.41683 16.6539C9.22238 16.589 9.04877 16.4918 8.896 16.3621C7.99322 15.5838 7.19461 14.8251 6.50016 14.0857C5.80572 13.3464 5.22586 12.6298 4.76058 11.9359C4.2953 11.242 3.94113 10.574 3.69808 9.93194C3.45502 9.28991 3.3335 8.67705 3.3335 8.09338C3.3335 6.14781 4.00363 4.59784 5.34391 3.44347C6.68419 2.2891 8.23627 1.71191 10.0002 1.71191C11.7641 1.71191 13.3161 2.2891 14.6564 3.44347C15.9967 4.59784 16.6668 6.14781 16.6668 8.09338C16.6668 8.67705 16.5453 9.28991 16.3022 9.93194C16.0592 10.574 15.705 11.242 15.2397 11.9359C14.7745 12.6298 14.1946 13.3464 13.5002 14.0857C12.8057 14.8251 12.0071 15.5838 11.1043 16.3621C10.9516 16.4918 10.7779 16.589 10.5835 16.6539C10.3891 16.7187 10.1946 16.7512 10.0002 16.7512ZM10.0002 9.49419C10.4585 9.49419 10.8509 9.34179 11.1772 9.03698C11.5036 8.73218 11.6668 8.36576 11.6668 7.93774C11.6668 7.50971 11.5036 7.14329 11.1772 6.83849C10.8509 6.53368 10.4585 6.38128 10.0002 6.38128C9.54183 6.38128 9.14947 6.53368 8.82308 6.83849C8.49669 7.14329 8.3335 7.50971 8.3335 7.93774C8.3335 8.36576 8.49669 8.73218 8.82308 9.03698C9.14947 9.34179 9.54183 9.49419 10.0002 9.49419Z" fill="#4C4C4C"/>
</svg>
