<svg width="42" height="42" viewBox="0 0 42 42" fill="none" xmlns="http://www.w3.org/2000/svg">
<path d="M8.75 36.75C7.7875 36.75 6.96354 36.4073 6.27813 35.7219C5.59271 35.0365 5.25 34.2125 5.25 33.25V8.75C5.25 7.7875 5.59271 6.96354 6.27813 6.27812C6.96354 5.59271 7.7875 5.25 8.75 5.25H19.25C19.7458 5.25 20.1615 5.41771 20.4969 5.75313C20.8323 6.08854 21 6.50417 21 7C21 7.49583 20.8323 7.91146 20.4969 8.24688C20.1615 8.58229 19.7458 8.75 19.25 8.75H8.75V33.25H19.25C19.7458 33.25 20.1615 33.4177 20.4969 33.7531C20.8323 34.0885 21 34.5042 21 35C21 35.4958 20.8323 35.9115 20.4969 36.2469C20.1615 36.5823 19.7458 36.75 19.25 36.75H8.75ZM30.0563 22.75H17.5C17.0042 22.75 16.5885 22.5823 16.2531 22.2469C15.9177 21.9115 15.75 21.4958 15.75 21C15.75 20.5042 15.9177 20.0885 16.2531 19.7531C16.5885 19.4177 17.0042 19.25 17.5 19.25H30.0563L26.775 15.9688C26.4542 15.6479 26.2938 15.2542 26.2938 14.7875C26.2938 14.3208 26.4542 13.9125 26.775 13.5625C27.0958 13.2125 27.5042 13.0302 28 13.0156C28.4958 13.001 28.9188 13.1687 29.2688 13.5188L35.525 19.775C35.875 20.125 36.05 20.5333 36.05 21C36.05 21.4667 35.875 21.875 35.525 22.225L29.2688 28.4812C28.9188 28.8312 28.5031 28.999 28.0219 28.9844C27.5406 28.9698 27.125 28.7875 26.775 28.4375C26.4542 28.0875 26.301 27.6719 26.3156 27.1906C26.3302 26.7094 26.4979 26.3083 26.8188 25.9875L30.0563 22.75Z" fill="#E8EAED"/>
</svg>
