<svg width="263" height="72" viewBox="0 0 263 72" fill="none" xmlns="http://www.w3.org/2000/svg">
<path d="M88.92 47.48C86.7067 47.48 84.6533 47.12 82.76 46.4C80.8933 45.68 79.2667 44.6667 77.88 43.36C76.52 42.0533 75.4533 40.52 74.68 38.76C73.9333 37 73.56 35.08 73.56 33C73.56 30.92 73.9333 29 74.68 27.24C75.4533 25.48 76.5333 23.9467 77.92 22.64C79.3067 21.3333 80.9333 20.32 82.8 19.6C84.6667 18.88 86.6933 18.52 88.88 18.52C91.0933 18.52 93.12 18.88 94.96 19.6C96.8267 20.32 98.44 21.3333 99.8 22.64C101.187 23.9467 102.267 25.48 103.04 27.24C103.813 28.9733 104.2 30.8933 104.2 33C104.2 35.08 103.813 37.0133 103.04 38.8C102.267 40.56 101.187 42.0933 99.8 43.4C98.44 44.68 96.8267 45.68 94.96 46.4C93.12 47.12 91.1067 47.48 88.92 47.48ZM88.88 41.96C90.1333 41.96 91.28 41.7467 92.32 41.32C93.3867 40.8933 94.32 40.28 95.12 39.48C95.92 38.68 96.5333 37.7333 96.96 36.64C97.4133 35.5467 97.64 34.3333 97.64 33C97.64 31.6667 97.4133 30.4533 96.96 29.36C96.5333 28.2667 95.92 27.32 95.12 26.52C94.3467 25.72 93.4267 25.1067 92.36 24.68C91.2933 24.2533 90.1333 24.04 88.88 24.04C87.6267 24.04 86.4667 24.2533 85.4 24.68C84.36 25.1067 83.44 25.72 82.64 26.52C81.84 27.32 81.2133 28.2667 80.76 29.36C80.3333 30.4533 80.12 31.6667 80.12 33C80.12 34.3067 80.3333 35.52 80.76 36.64C81.2133 37.7333 81.8267 38.68 82.6 39.48C83.4 40.28 84.3333 40.8933 85.4 41.32C86.4667 41.7467 87.6267 41.96 88.88 41.96ZM121.71 25.16C123.417 25.16 124.937 25.5067 126.27 26.2C127.63 26.8667 128.697 27.9067 129.47 29.32C130.243 30.7067 130.63 32.4933 130.63 34.68V47H124.39V35.64C124.39 33.9067 124.003 32.6267 123.23 31.8C122.483 30.9733 121.417 30.56 120.03 30.56C119.043 30.56 118.15 30.7733 117.35 31.2C116.577 31.6 115.963 32.2267 115.51 33.08C115.083 33.9333 114.87 35.0267 114.87 36.36V47H108.63V25.48H114.59V31.44L113.47 29.64C114.243 28.2 115.35 27.0933 116.79 26.32C118.23 25.5467 119.87 25.16 121.71 25.16ZM147.123 47.32C144.669 47.32 142.509 46.84 140.643 45.88C138.803 44.92 137.376 43.6133 136.363 41.96C135.349 40.28 134.843 38.3733 134.843 36.24C134.843 34.08 135.336 32.1733 136.323 30.52C137.336 28.84 138.709 27.5333 140.443 26.6C142.176 25.64 144.136 25.16 146.323 25.16C148.429 25.16 150.323 25.6133 152.003 26.52C153.709 27.4 155.056 28.68 156.043 30.36C157.029 32.0133 157.523 34 157.523 36.32C157.523 36.56 157.509 36.84 157.483 37.16C157.456 37.4533 157.429 37.7333 157.403 38H139.923V34.36H154.122L151.723 35.44C151.723 34.32 151.496 33.3467 151.043 32.52C150.589 31.6933 149.963 31.0533 149.163 30.6C148.363 30.12 147.429 29.88 146.363 29.88C145.296 29.88 144.349 30.12 143.523 30.6C142.723 31.0533 142.096 31.7067 141.643 32.56C141.189 33.3867 140.963 34.3733 140.963 35.52V36.48C140.963 37.6533 141.216 38.6933 141.723 39.6C142.256 40.48 142.989 41.16 143.923 41.64C144.883 42.0933 146.003 42.32 147.283 42.32C148.429 42.32 149.429 42.1467 150.283 41.8C151.163 41.4533 151.963 40.9333 152.683 40.24L156.003 43.84C155.016 44.96 153.776 45.8267 152.283 46.44C150.789 47.0267 149.069 47.32 147.123 47.32ZM175.517 47.48C173.357 47.48 171.344 47.1333 169.477 46.44C167.637 45.72 166.037 44.7067 164.677 43.4C163.317 42.0933 162.25 40.56 161.477 38.8C160.73 37.04 160.357 35.1067 160.357 33C160.357 30.8933 160.73 28.96 161.477 27.2C162.25 25.44 163.317 23.9067 164.677 22.6C166.064 21.2933 167.677 20.2933 169.517 19.6C171.357 18.88 173.37 18.52 175.557 18.52C177.984 18.52 180.17 18.9467 182.117 19.8C184.09 20.6267 185.744 21.8533 187.077 23.48L182.917 27.32C181.957 26.2267 180.89 25.4133 179.717 24.88C178.544 24.32 177.264 24.04 175.877 24.04C174.57 24.04 173.37 24.2533 172.277 24.68C171.184 25.1067 170.237 25.72 169.437 26.52C168.637 27.32 168.01 28.2667 167.557 29.36C167.13 30.4533 166.917 31.6667 166.917 33C166.917 34.3333 167.13 35.5467 167.557 36.64C168.01 37.7333 168.637 38.68 169.437 39.48C170.237 40.28 171.184 40.8933 172.277 41.32C173.37 41.7467 174.57 41.96 175.877 41.96C177.264 41.96 178.544 41.6933 179.717 41.16C180.89 40.6 181.957 39.76 182.917 38.64L187.077 42.48C185.744 44.1067 184.09 45.3467 182.117 46.2C180.17 47.0533 177.97 47.48 175.517 47.48ZM191.013 47V17.32H197.253V47H191.013ZM203.044 47V25.48H209.284V47H203.044ZM206.164 22.48C205.017 22.48 204.084 22.1467 203.364 21.48C202.644 20.8133 202.284 19.9867 202.284 19C202.284 18.0133 202.644 17.1867 203.364 16.52C204.084 15.8533 205.017 15.52 206.164 15.52C207.311 15.52 208.244 15.84 208.964 16.48C209.684 17.0933 210.044 17.8933 210.044 18.88C210.044 19.92 209.684 20.7867 208.964 21.48C208.271 22.1467 207.337 22.48 206.164 22.48ZM225.475 47.32C223.155 47.32 221.089 46.8533 219.275 45.92C217.462 44.96 216.035 43.64 214.995 41.96C213.982 40.28 213.475 38.3733 213.475 36.24C213.475 34.08 213.982 32.1733 214.995 30.52C216.035 28.84 217.462 27.5333 219.275 26.6C221.089 25.64 223.155 25.16 225.475 25.16C227.742 25.16 229.715 25.64 231.395 26.6C233.075 27.5333 234.315 28.88 235.115 30.64L230.275 33.24C229.715 32.2267 229.009 31.48 228.155 31C227.329 30.52 226.422 30.28 225.435 30.28C224.369 30.28 223.409 30.52 222.555 31C221.702 31.48 221.022 32.16 220.515 33.04C220.035 33.92 219.795 34.9867 219.795 36.24C219.795 37.4933 220.035 38.56 220.515 39.44C221.022 40.32 221.702 41 222.555 41.48C223.409 41.96 224.369 42.2 225.435 42.2C226.422 42.2 227.329 41.9733 228.155 41.52C229.009 41.04 229.715 40.28 230.275 39.24L235.115 41.88C234.315 43.6133 233.075 44.96 231.395 45.92C229.715 46.8533 227.742 47.32 225.475 47.32ZM243.751 42.6L243.911 35L253.951 25.48H261.391L251.751 35.28L248.511 37.92L243.751 42.6ZM238.591 47V17.32H244.831V47H238.591ZM254.631 47L247.351 37.96L251.271 33.12L262.191 47H254.631Z" fill="#F7F7FA"/>
<path d="M112.008 63.08C111.197 63.08 110.467 62.8987 109.816 62.536C109.176 62.1627 108.669 61.656 108.296 61.016C107.923 60.3653 107.736 59.624 107.736 58.792C107.736 57.9493 107.923 57.208 108.296 56.568C108.669 55.928 109.176 55.4267 109.816 55.064C110.456 54.7013 111.187 54.52 112.008 54.52C112.84 54.52 113.576 54.7013 114.216 55.064C114.867 55.4267 115.373 55.928 115.736 56.568C116.109 57.208 116.296 57.9493 116.296 58.792C116.296 59.624 116.109 60.3653 115.736 61.016C115.373 61.656 114.867 62.1627 114.216 62.536C113.565 62.8987 112.829 63.08 112.008 63.08ZM112.008 62.072C112.616 62.072 113.155 61.9387 113.624 61.672C114.093 61.3947 114.461 61.0107 114.728 60.52C115.005 60.0187 115.144 59.4427 115.144 58.792C115.144 58.1307 115.005 57.5547 114.728 57.064C114.461 56.5733 114.093 56.1947 113.624 55.928C113.155 55.6507 112.621 55.512 112.024 55.512C111.427 55.512 110.893 55.6507 110.424 55.928C109.955 56.1947 109.581 56.5733 109.304 57.064C109.027 57.5547 108.888 58.1307 108.888 58.792C108.888 59.4427 109.027 60.0187 109.304 60.52C109.581 61.0107 109.955 61.3947 110.424 61.672C110.893 61.9387 111.421 62.072 112.008 62.072ZM125.303 54.52C125.986 54.52 126.583 54.6533 127.095 54.92C127.618 55.176 128.023 55.5707 128.311 56.104C128.61 56.6373 128.759 57.3093 128.759 58.12V63H127.623V58.232C127.623 57.3467 127.399 56.68 126.951 56.232C126.514 55.7733 125.895 55.544 125.095 55.544C124.498 55.544 123.975 55.6667 123.527 55.912C123.09 56.1467 122.749 56.4933 122.503 56.952C122.269 57.4 122.151 57.944 122.151 58.584V63H121.015V54.6H122.103V56.904L121.927 56.472C122.194 55.864 122.621 55.3893 123.207 55.048C123.794 54.696 124.493 54.52 125.303 54.52ZM134.228 63V51.128H135.364V63H134.228ZM140.925 63V54.6H142.061V63H140.925ZM141.501 52.744C141.266 52.744 141.069 52.664 140.909 52.504C140.749 52.344 140.669 52.152 140.669 51.928C140.669 51.704 140.749 51.5173 140.909 51.368C141.069 51.208 141.266 51.128 141.501 51.128C141.735 51.128 141.933 51.2027 142.093 51.352C142.253 51.5013 142.333 51.688 142.333 51.912C142.333 52.1467 142.253 52.344 142.093 52.504C141.943 52.664 141.746 52.744 141.501 52.744ZM151.909 54.52C152.592 54.52 153.189 54.6533 153.701 54.92C154.224 55.176 154.629 55.5707 154.917 56.104C155.216 56.6373 155.365 57.3093 155.365 58.12V63H154.229V58.232C154.229 57.3467 154.005 56.68 153.557 56.232C153.12 55.7733 152.501 55.544 151.701 55.544C151.104 55.544 150.581 55.6667 150.133 55.912C149.696 56.1467 149.355 56.4933 149.109 56.952C148.875 57.4 148.757 57.944 148.757 58.584V63H147.621V54.6H148.709V56.904L148.533 56.472C148.8 55.864 149.227 55.3893 149.813 55.048C150.4 54.696 151.099 54.52 151.909 54.52ZM164.402 63.08C163.527 63.08 162.759 62.8987 162.098 62.536C161.437 62.1627 160.919 61.656 160.546 61.016C160.173 60.3653 159.986 59.624 159.986 58.792C159.986 57.96 160.162 57.224 160.514 56.584C160.877 55.944 161.367 55.4427 161.986 55.08C162.615 54.7067 163.319 54.52 164.098 54.52C164.887 54.52 165.586 54.7013 166.194 55.064C166.813 55.416 167.298 55.9173 167.65 56.568C168.002 57.208 168.178 57.9493 168.178 58.792C168.178 58.8453 168.173 58.904 168.162 58.968C168.162 59.0213 168.162 59.08 168.162 59.144H160.85V58.296H167.554L167.106 58.632C167.106 58.024 166.973 57.4853 166.706 57.016C166.45 56.536 166.098 56.1627 165.65 55.896C165.202 55.6293 164.685 55.496 164.098 55.496C163.522 55.496 163.005 55.6293 162.546 55.896C162.087 56.1627 161.73 56.536 161.474 57.016C161.218 57.496 161.09 58.0453 161.09 58.664V58.84C161.09 59.48 161.229 60.0453 161.506 60.536C161.794 61.016 162.189 61.3947 162.69 61.672C163.202 61.9387 163.783 62.072 164.434 62.072C164.946 62.072 165.421 61.9813 165.858 61.8C166.306 61.6187 166.69 61.3413 167.01 60.968L167.65 61.704C167.277 62.152 166.807 62.4933 166.242 62.728C165.687 62.9627 165.074 63.08 164.402 63.08ZM181.734 63.08C181.04 63.08 180.384 62.984 179.766 62.792C179.147 62.5893 178.662 62.3387 178.31 62.04L178.822 61.144C179.163 61.4 179.6 61.624 180.134 61.816C180.667 61.9973 181.227 62.088 181.814 62.088C182.614 62.088 183.19 61.9653 183.542 61.72C183.894 61.464 184.07 61.128 184.07 60.712C184.07 60.4027 183.968 60.1627 183.766 59.992C183.574 59.8107 183.318 59.6773 182.998 59.592C182.678 59.496 182.32 59.416 181.926 59.352C181.531 59.288 181.136 59.2133 180.742 59.128C180.358 59.0427 180.006 58.92 179.686 58.76C179.366 58.5893 179.104 58.36 178.902 58.072C178.71 57.784 178.614 57.4 178.614 56.92C178.614 56.4613 178.742 56.0507 178.998 55.688C179.254 55.3253 179.627 55.0427 180.118 54.84C180.619 54.6267 181.227 54.52 181.942 54.52C182.486 54.52 183.03 54.5947 183.574 54.744C184.118 54.8827 184.566 55.0693 184.918 55.304L184.422 56.216C184.048 55.96 183.648 55.7787 183.222 55.672C182.795 55.5547 182.368 55.496 181.942 55.496C181.184 55.496 180.624 55.6293 180.262 55.896C179.91 56.152 179.734 56.4827 179.734 56.888C179.734 57.208 179.83 57.4587 180.022 57.64C180.224 57.8213 180.486 57.9653 180.806 58.072C181.136 58.168 181.494 58.248 181.878 58.312C182.272 58.376 182.662 58.456 183.046 58.552C183.44 58.6373 183.798 58.76 184.118 58.92C184.448 59.0693 184.71 59.288 184.902 59.576C185.104 59.8533 185.206 60.2213 185.206 60.68C185.206 61.1707 185.067 61.5973 184.79 61.96C184.523 62.312 184.128 62.5893 183.606 62.792C183.094 62.984 182.47 63.08 181.734 63.08ZM192.346 63.08C191.557 63.08 190.949 62.8667 190.522 62.44C190.096 62.0133 189.882 61.4107 189.882 60.632V52.744H191.018V60.568C191.018 61.0587 191.141 61.4373 191.386 61.704C191.642 61.9707 192.005 62.104 192.474 62.104C192.976 62.104 193.392 61.96 193.722 61.672L194.122 62.488C193.898 62.6907 193.626 62.84 193.306 62.936C192.997 63.032 192.677 63.08 192.346 63.08ZM188.378 55.544V54.6H193.578V55.544H188.378ZM201.717 63.08C200.907 63.08 200.176 62.8987 199.525 62.536C198.885 62.1627 198.379 61.656 198.005 61.016C197.632 60.3653 197.445 59.624 197.445 58.792C197.445 57.9493 197.632 57.208 198.005 56.568C198.379 55.928 198.885 55.4267 199.525 55.064C200.165 54.7013 200.896 54.52 201.717 54.52C202.549 54.52 203.285 54.7013 203.925 55.064C204.576 55.4267 205.083 55.928 205.445 56.568C205.819 57.208 206.005 57.9493 206.005 58.792C206.005 59.624 205.819 60.3653 205.445 61.016C205.083 61.656 204.576 62.1627 203.925 62.536C203.275 62.8987 202.539 63.08 201.717 63.08ZM201.717 62.072C202.325 62.072 202.864 61.9387 203.333 61.672C203.803 61.3947 204.171 61.0107 204.437 60.52C204.715 60.0187 204.853 59.4427 204.853 58.792C204.853 58.1307 204.715 57.5547 204.437 57.064C204.171 56.5733 203.803 56.1947 203.333 55.928C202.864 55.6507 202.331 55.512 201.733 55.512C201.136 55.512 200.603 55.6507 200.133 55.928C199.664 56.1947 199.291 56.5733 199.013 57.064C198.736 57.5547 198.597 58.1307 198.597 58.792C198.597 59.4427 198.736 60.0187 199.013 60.52C199.291 61.0107 199.664 61.3947 200.133 61.672C200.603 61.9387 201.131 62.072 201.717 62.072ZM210.725 63V54.6H211.813V56.888L211.701 56.488C211.935 55.848 212.33 55.3627 212.885 55.032C213.439 54.6907 214.127 54.52 214.949 54.52V55.624C214.906 55.624 214.863 55.624 214.821 55.624C214.778 55.6133 214.735 55.608 214.693 55.608C213.807 55.608 213.114 55.88 212.613 56.424C212.111 56.9573 211.861 57.72 211.861 58.712V63H210.725ZM222.911 63.08C222.037 63.08 221.269 62.8987 220.607 62.536C219.946 62.1627 219.429 61.656 219.055 61.016C218.682 60.3653 218.495 59.624 218.495 58.792C218.495 57.96 218.671 57.224 219.023 56.584C219.386 55.944 219.877 55.4427 220.495 55.08C221.125 54.7067 221.829 54.52 222.607 54.52C223.397 54.52 224.095 54.7013 224.703 55.064C225.322 55.416 225.807 55.9173 226.159 56.568C226.511 57.208 226.687 57.9493 226.687 58.792C226.687 58.8453 226.682 58.904 226.671 58.968C226.671 59.0213 226.671 59.08 226.671 59.144H219.359V58.296H226.063L225.615 58.632C225.615 58.024 225.482 57.4853 225.215 57.016C224.959 56.536 224.607 56.1627 224.159 55.896C223.711 55.6293 223.194 55.496 222.607 55.496C222.031 55.496 221.514 55.6293 221.055 55.896C220.597 56.1627 220.239 56.536 219.983 57.016C219.727 57.496 219.599 58.0453 219.599 58.664V58.84C219.599 59.48 219.738 60.0453 220.015 60.536C220.303 61.016 220.698 61.3947 221.199 61.672C221.711 61.9387 222.293 62.072 222.943 62.072C223.455 62.072 223.93 61.9813 224.367 61.8C224.815 61.6187 225.199 61.3413 225.519 60.968L226.159 61.704C225.786 62.152 225.317 62.4933 224.751 62.728C224.197 62.9627 223.583 63.08 222.911 63.08Z" fill="#F7F7FA"/>
<path d="M18 66C16.35 66 14.9375 65.4125 13.7625 64.2375C12.5875 63.0625 12 61.65 12 60V24C12 22.35 12.5875 20.9375 13.7625 19.7625C14.9375 18.5875 16.35 18 18 18H24C24 14.7 25.175 11.875 27.525 9.525C29.875 7.175 32.7 6 36 6C39.3 6 42.125 7.175 44.475 9.525C46.825 11.875 48 14.7 48 18H54C55.65 18 57.0625 18.5875 58.2375 19.7625C59.4125 20.9375 60 22.35 60 24V60C60 61.65 59.4125 63.0625 58.2375 64.2375C57.0625 65.4125 55.65 66 54 66H18ZM18 60H54V24H48V30C48 30.85 47.7125 31.5625 47.1375 32.1375C46.5625 32.7125 45.85 33 45 33C44.15 33 43.4375 32.7125 42.8625 32.1375C42.2875 31.5625 42 30.85 42 30V24H30V30C30 30.85 29.7125 31.5625 29.1375 32.1375C28.5625 32.7125 27.85 33 27 33C26.15 33 25.4375 32.7125 24.8625 32.1375C24.2875 31.5625 24 30.85 24 30V24H18V60ZM30 18H42C42 16.35 41.4125 14.9375 40.2375 13.7625C39.0625 12.5875 37.65 12 36 12C34.35 12 32.9375 12.5875 31.7625 13.7625C30.5875 14.9375 30 16.35 30 18Z" fill="#F7F7FA"/>
</svg>
